<mxfile host="Electron" agent="Mozilla/5.0 (Windows NT 10.0; Win64; x64) AppleWebKit/537.36 (KHTML, like Gecko) draw.io/27.0.9 Chrome/134.0.6998.205 Electron/35.4.0 Safari/537.36" version="27.0.9">
  <diagram name="Page-1" id="1hs5s9o86z9CkmKRlvlU">
    <mxGraphModel dx="692" dy="595" grid="0" gridSize="10" guides="1" tooltips="1" connect="1" arrows="1" fold="1" page="1" pageScale="1" pageWidth="827" pageHeight="1169" math="0" shadow="0">
      <root>
        <mxCell id="0" />
        <mxCell id="1" parent="0" />
        <mxCell id="31MtgqS5LgZSstecCEcJ-1" value="" style="rounded=0;whiteSpace=wrap;html=1;movable=0;resizable=0;rotatable=0;deletable=0;editable=0;locked=1;connectable=0;" parent="1" vertex="1">
          <mxGeometry x="176" y="68" width="376" height="387" as="geometry" />
        </mxCell>
        <mxCell id="m7XsVHhVL0BLHQTgYPTq-2" value="responsable" style="shape=umlActor;verticalLabelPosition=bottom;verticalAlign=top;html=1;" parent="1" vertex="1">
          <mxGeometry x="57" y="170" width="27" height="60" as="geometry" />
        </mxCell>
        <mxCell id="m7XsVHhVL0BLHQTgYPTq-6" value="" style="shape=ellipse;container=1;horizontal=1;horizontalStack=0;resizeParent=1;resizeParentMax=0;resizeLast=0;html=1;dashed=0;collapsible=0;" parent="1" vertex="1">
          <mxGeometry x="411" y="113" width="120" height="35" as="geometry" />
        </mxCell>
        <mxCell id="m7XsVHhVL0BLHQTgYPTq-7" value="login" style="html=1;strokeColor=none;fillColor=none;align=center;verticalAlign=middle;rotatable=0;whiteSpace=wrap;" parent="m7XsVHhVL0BLHQTgYPTq-6" vertex="1">
          <mxGeometry x="-5.8" y="13.125" width="120" height="8.75" as="geometry" />
        </mxCell>
        <mxCell id="m7XsVHhVL0BLHQTgYPTq-11" value="" style="shape=ellipse;container=1;horizontal=1;horizontalStack=0;resizeParent=1;resizeParentMax=0;resizeLast=0;html=1;dashed=0;collapsible=0;" parent="1" vertex="1">
          <mxGeometry x="411" y="168" width="120" height="35" as="geometry" />
        </mxCell>
        <mxCell id="m7XsVHhVL0BLHQTgYPTq-12" value="logout" style="html=1;strokeColor=none;fillColor=none;align=center;verticalAlign=middle;rotatable=0;whiteSpace=wrap;" parent="m7XsVHhVL0BLHQTgYPTq-11" vertex="1">
          <mxGeometry y="13.125" width="120" height="8.75" as="geometry" />
        </mxCell>
        <mxCell id="m7XsVHhVL0BLHQTgYPTq-19" value="" style="shape=ellipse;container=1;horizontal=1;horizontalStack=0;resizeParent=1;resizeParentMax=0;resizeLast=0;html=1;dashed=0;collapsible=0;" parent="1" vertex="1">
          <mxGeometry x="415" y="276" width="120" height="41" as="geometry" />
        </mxCell>
        <mxCell id="m7XsVHhVL0BLHQTgYPTq-20" value="chercher event" style="html=1;strokeColor=none;fillColor=none;align=center;verticalAlign=middle;rotatable=0;whiteSpace=wrap;" parent="m7XsVHhVL0BLHQTgYPTq-19" vertex="1">
          <mxGeometry x="2" y="19.817642857142857" width="120" height="10.25" as="geometry" />
        </mxCell>
        <mxCell id="m7XsVHhVL0BLHQTgYPTq-45" value="" style="endArrow=classic;html=1;rounded=0;entryX=0;entryY=1;entryDx=0;entryDy=0;endFill=1;dashed=1;dashPattern=8 8;exitX=0.987;exitY=0.226;exitDx=0;exitDy=0;exitPerimeter=0;" parent="1" target="m7XsVHhVL0BLHQTgYPTq-7" edge="1" source="_opvCd1_qXwPhaJRH0k1-18">
          <mxGeometry width="50" height="50" relative="1" as="geometry">
            <mxPoint x="97" y="189" as="sourcePoint" />
            <mxPoint x="473" y="257" as="targetPoint" />
            <Array as="points">
              <mxPoint x="328" y="135" />
            </Array>
          </mxGeometry>
        </mxCell>
        <mxCell id="_opvCd1_qXwPhaJRH0k1-17" value="&quot;include&quot;" style="edgeLabel;html=1;align=center;verticalAlign=middle;resizable=0;points=[];" vertex="1" connectable="0" parent="m7XsVHhVL0BLHQTgYPTq-45">
          <mxGeometry x="0.0133" relative="1" as="geometry">
            <mxPoint as="offset" />
          </mxGeometry>
        </mxCell>
        <mxCell id="m7XsVHhVL0BLHQTgYPTq-46" value="" style="endArrow=classic;html=1;rounded=0;entryX=0;entryY=0.5;entryDx=0;entryDy=0;endFill=1;dashed=1;dashPattern=8 8;exitX=0.933;exitY=0.753;exitDx=0;exitDy=0;exitPerimeter=0;" parent="1" target="m7XsVHhVL0BLHQTgYPTq-12" edge="1" source="_opvCd1_qXwPhaJRH0k1-18">
          <mxGeometry width="50" height="50" relative="1" as="geometry">
            <mxPoint x="290" y="205" as="sourcePoint" />
            <mxPoint x="427" y="247" as="targetPoint" />
            <Array as="points">
              <mxPoint x="332" y="186" />
            </Array>
          </mxGeometry>
        </mxCell>
        <mxCell id="_opvCd1_qXwPhaJRH0k1-16" value="&quot;include&quot;" style="edgeLabel;html=1;align=center;verticalAlign=middle;resizable=0;points=[];" vertex="1" connectable="0" parent="m7XsVHhVL0BLHQTgYPTq-46">
          <mxGeometry x="-0.0945" y="2" relative="1" as="geometry">
            <mxPoint x="13" y="-2" as="offset" />
          </mxGeometry>
        </mxCell>
        <mxCell id="m7XsVHhVL0BLHQTgYPTq-48" value="" style="endArrow=classic;html=1;rounded=0;entryX=0;entryY=0.5;entryDx=0;entryDy=0;endFill=1;exitX=1;exitY=0.5;exitDx=0;exitDy=0;dashed=1;dashPattern=8 8;" parent="1" target="m7XsVHhVL0BLHQTgYPTq-19" edge="1" source="_opvCd1_qXwPhaJRH0k1-1">
          <mxGeometry width="50" height="50" relative="1" as="geometry">
            <mxPoint x="110" y="219" as="sourcePoint" />
            <mxPoint x="697" y="377" as="targetPoint" />
            <Array as="points" />
          </mxGeometry>
        </mxCell>
        <mxCell id="_opvCd1_qXwPhaJRH0k1-10" value="&quot;include&quot;" style="edgeLabel;html=1;align=center;verticalAlign=middle;resizable=0;points=[];" vertex="1" connectable="0" parent="m7XsVHhVL0BLHQTgYPTq-48">
          <mxGeometry x="0.053" y="-1" relative="1" as="geometry">
            <mxPoint y="-1" as="offset" />
          </mxGeometry>
        </mxCell>
        <mxCell id="m7XsVHhVL0BLHQTgYPTq-110" value="" style="shape=ellipse;container=1;horizontal=1;horizontalStack=0;resizeParent=1;resizeParentMax=0;resizeLast=0;html=1;dashed=0;collapsible=0;" parent="1" vertex="1">
          <mxGeometry x="416.64" y="365" width="120" height="46" as="geometry" />
        </mxCell>
        <mxCell id="m7XsVHhVL0BLHQTgYPTq-111" value="imprimer détail du planning d&#39;un event" style="html=1;strokeColor=none;fillColor=none;align=center;verticalAlign=middle;rotatable=0;whiteSpace=wrap;" parent="m7XsVHhVL0BLHQTgYPTq-110" vertex="1">
          <mxGeometry x="3.29" y="17.25109523809524" width="120" height="11.5" as="geometry" />
        </mxCell>
        <mxCell id="m7XsVHhVL0BLHQTgYPTq-112" value="" style="endArrow=none;html=1;rounded=0;entryX=0.048;entryY=0.209;entryDx=0;entryDy=0;endFill=0;entryPerimeter=0;" parent="1" target="_opvCd1_qXwPhaJRH0k1-1" edge="1">
          <mxGeometry width="50" height="50" relative="1" as="geometry">
            <mxPoint x="112" y="234" as="sourcePoint" />
            <mxPoint x="709" y="459" as="targetPoint" />
            <Array as="points" />
          </mxGeometry>
        </mxCell>
        <mxCell id="31MtgqS5LgZSstecCEcJ-2" value="gestion des impressions - plannification des event&amp;nbsp;" style="text;html=1;align=center;verticalAlign=middle;whiteSpace=wrap;rounded=0;fontSize=16;fontStyle=1" parent="1" vertex="1">
          <mxGeometry x="151" y="78" width="300" height="30" as="geometry" />
        </mxCell>
        <mxCell id="_opvCd1_qXwPhaJRH0k1-1" value="gérer les impressions" style="ellipse;whiteSpace=wrap;html=1;" vertex="1" parent="1">
          <mxGeometry x="192" y="277" width="120" height="46" as="geometry" />
        </mxCell>
        <mxCell id="_opvCd1_qXwPhaJRH0k1-2" value="" style="endArrow=classic;html=1;rounded=0;dashed=1;dashPattern=8 8;exitX=0.753;exitY=0.913;exitDx=0;exitDy=0;exitPerimeter=0;" edge="1" parent="1" source="_opvCd1_qXwPhaJRH0k1-1">
          <mxGeometry width="50" height="50" relative="1" as="geometry">
            <mxPoint x="333" y="342" as="sourcePoint" />
            <mxPoint x="415" y="388" as="targetPoint" />
          </mxGeometry>
        </mxCell>
        <mxCell id="_opvCd1_qXwPhaJRH0k1-3" value="&quot;extend&quot;" style="edgeLabel;html=1;align=center;verticalAlign=middle;resizable=0;points=[];" vertex="1" connectable="0" parent="_opvCd1_qXwPhaJRH0k1-2">
          <mxGeometry x="-0.4111" y="2" relative="1" as="geometry">
            <mxPoint x="16" as="offset" />
          </mxGeometry>
        </mxCell>
        <mxCell id="_opvCd1_qXwPhaJRH0k1-4" value="" style="shape=ellipse;container=1;horizontal=1;horizontalStack=0;resizeParent=1;resizeParentMax=0;resizeLast=0;html=1;dashed=0;collapsible=0;" vertex="1" parent="1">
          <mxGeometry x="415" y="323" width="123.29" height="37" as="geometry" />
        </mxCell>
        <mxCell id="_opvCd1_qXwPhaJRH0k1-5" value="choisir event" style="html=1;strokeColor=none;fillColor=none;align=center;verticalAlign=middle;rotatable=0;whiteSpace=wrap;" vertex="1" parent="_opvCd1_qXwPhaJRH0k1-4">
          <mxGeometry y="10.43" width="120" height="16.13" as="geometry" />
        </mxCell>
        <mxCell id="_opvCd1_qXwPhaJRH0k1-6" value="" style="endArrow=classic;html=1;rounded=0;dashed=1;dashPattern=8 8;exitX=0.973;exitY=0.722;exitDx=0;exitDy=0;exitPerimeter=0;endSize=6;strokeWidth=1;jumpSize=6;" edge="1" parent="1" source="_opvCd1_qXwPhaJRH0k1-1">
          <mxGeometry width="50" height="50" relative="1" as="geometry">
            <mxPoint x="306" y="344" as="sourcePoint" />
            <mxPoint x="415" y="345" as="targetPoint" />
          </mxGeometry>
        </mxCell>
        <mxCell id="_opvCd1_qXwPhaJRH0k1-7" value="&quot;include&quot;" style="edgeLabel;html=1;align=center;verticalAlign=middle;resizable=0;points=[];" vertex="1" connectable="0" parent="_opvCd1_qXwPhaJRH0k1-6">
          <mxGeometry x="-0.4111" y="2" relative="1" as="geometry">
            <mxPoint x="16" as="offset" />
          </mxGeometry>
        </mxCell>
        <mxCell id="_opvCd1_qXwPhaJRH0k1-11" value="filtrer&amp;nbsp;" style="rounded=0;whiteSpace=wrap;html=1;" vertex="1" parent="1">
          <mxGeometry x="586" y="268" width="120" height="38" as="geometry" />
        </mxCell>
        <mxCell id="_opvCd1_qXwPhaJRH0k1-12" value="" style="endArrow=none;dashed=1;html=1;dashPattern=1 3;strokeWidth=2;rounded=0;entryX=0;entryY=0.25;entryDx=0;entryDy=0;" edge="1" parent="1" target="_opvCd1_qXwPhaJRH0k1-11">
          <mxGeometry width="50" height="50" relative="1" as="geometry">
            <mxPoint x="531" y="289" as="sourcePoint" />
            <mxPoint x="384" y="284" as="targetPoint" />
          </mxGeometry>
        </mxCell>
        <mxCell id="_opvCd1_qXwPhaJRH0k1-14" value="cliquer" style="rounded=0;whiteSpace=wrap;html=1;" vertex="1" parent="1">
          <mxGeometry x="588" y="319" width="120" height="32" as="geometry" />
        </mxCell>
        <mxCell id="_opvCd1_qXwPhaJRH0k1-15" value="" style="endArrow=none;dashed=1;html=1;dashPattern=1 3;strokeWidth=2;rounded=0;entryX=0;entryY=0.5;entryDx=0;entryDy=0;exitX=0.884;exitY=0.162;exitDx=0;exitDy=0;exitPerimeter=0;" edge="1" parent="1" source="_opvCd1_qXwPhaJRH0k1-4" target="_opvCd1_qXwPhaJRH0k1-14">
          <mxGeometry width="50" height="50" relative="1" as="geometry">
            <mxPoint x="334" y="334" as="sourcePoint" />
            <mxPoint x="384" y="284" as="targetPoint" />
          </mxGeometry>
        </mxCell>
        <mxCell id="_opvCd1_qXwPhaJRH0k1-18" value="authentifier" style="ellipse;whiteSpace=wrap;html=1;" vertex="1" parent="1">
          <mxGeometry x="192" y="136" width="120" height="38" as="geometry" />
        </mxCell>
        <mxCell id="_opvCd1_qXwPhaJRH0k1-19" value="" style="endArrow=classic;html=1;rounded=0;exitX=0.393;exitY=0.009;exitDx=0;exitDy=0;exitPerimeter=0;entryX=0.402;entryY=0.989;entryDx=0;entryDy=0;entryPerimeter=0;dashed=1;dashPattern=8 8;" edge="1" parent="1" target="_opvCd1_qXwPhaJRH0k1-18" source="_opvCd1_qXwPhaJRH0k1-1">
          <mxGeometry width="50" height="50" relative="1" as="geometry">
            <mxPoint x="270" y="283" as="sourcePoint" />
            <mxPoint x="377" y="199" as="targetPoint" />
          </mxGeometry>
        </mxCell>
        <mxCell id="_opvCd1_qXwPhaJRH0k1-20" value="&quot;include&quot;" style="edgeLabel;html=1;align=center;verticalAlign=middle;resizable=0;points=[];" vertex="1" connectable="0" parent="_opvCd1_qXwPhaJRH0k1-19">
          <mxGeometry x="0.0515" y="5" relative="1" as="geometry">
            <mxPoint as="offset" />
          </mxGeometry>
        </mxCell>
      </root>
    </mxGraphModel>
  </diagram>
</mxfile>
